<svg xmlns="http://www.w3.org/2000/svg" xmlns:svg="http://www.w3.org/2000/svg" id="svg2" width="100%" height="100%" version="1.2" viewBox="0 0 369.983 296.501"><defs id="defs4"><clipPath id="clipPath3018"><path id="path3020" fill="#f03c2e" fill-opacity="1" fill-rule="nonzero" stroke="none" d="M 230.89193,51.976875 181.14968,2.238125 c -2.86225,-2.86475001 -7.50825,-2.86475001 -10.3745,0 l -10.32862,10.3295 13.10212,13.102625 c 3.04588,-1.028375 6.53713,-0.338875 8.96388,2.088375 2.43937,2.442375 3.124,5.963375 2.06975,9.0195 l 12.628,12.6275 c 3.05512,-1.05275 6.58,-0.372625 9.0195,2.07125 3.41062,3.409625 3.41062,8.9345 0,12.34525 -3.41113,3.411625 -8.936,3.411625 -12.34863,0 -2.5645,-2.5665 -3.19875,-6.3345 -1.89987,-9.49425 l -11.77688,-11.77725 -0.001,30.991125 c 0.8315,0.411625 1.61625,0.961 2.30913,1.650875 3.40962,3.40925 3.40962,8.933125 0,12.34775 -3.41063,3.409125 -8.938,3.409125 -12.34525,0 -3.41013,-3.414625 -3.41013,-8.9385 0,-12.34775 0.84275,-0.84125 1.81787,-1.478 2.85837,-1.90475 l 0,-31.27875 c -1.0405,-0.425375 -2.01412,-1.057625 -2.85837,-1.904875 -2.583,-2.581 -3.20513,-6.372 -1.88038,-9.543875 l -12.9155,-12.918 -34.10647,34.1045 c -2.86572,2.867125 -2.86572,7.513125 0,10.378375 l 49.74172,49.73881 c 2.86375,2.86474 7.50825,2.86474 10.376,0 l 49.50925,-49.50831 c 2.86475,-2.86625 2.86475,-7.513625 0,-10.378875"/></clipPath><clipPath id="clipPath18"><path id="path20" d="m 0,0 2183.73,0 0,912 L 0,912 0,0 z"/></clipPath><filter id="filter3802" color-interpolation-filters="sRGB"><feGaussianBlur id="feGaussianBlur3804" stdDeviation="3.572"/></filter></defs><g id="g3016" fill="#616161" fill-opacity="1" filter="url(#filter3802)" transform="matrix(1.3053273,0,0,1.3053273,-197.94532,-293.87784)"><text id="text3018" x="159.602" y="393.261" fill="#616161" fill-opacity="1" stroke="none" font-family="Sans" font-size="40" font-style="normal" font-weight="normal" letter-spacing="0" word-spacing="0" xml:space="preserve" style="line-height:125%"><tspan font-stretch="normal" style="text-align:start;line-height:125%;-inkscape-font-specification:Open Sans Bold" id="tspan3020" x="159.602" y="393.261" fill="#616161" fill-opacity="1" font-family="Open Sans" font-size="210" font-style="normal" font-variant="normal" font-weight="bold" text-anchor="start" writing-mode="lr-tb">git</tspan></text><text id="text3022" x="300.034" y="433.489" fill="#616161" fill-opacity="1" stroke="none" font-family="Sans" font-size="40" font-style="normal" font-weight="normal" letter-spacing="0" word-spacing="0" xml:space="preserve" style="line-height:125%"><tspan id="tspan3024" x="300.034" y="433.489" fill="#616161" fill-opacity="1" font-family="Open Sans" font-size="48" font-stretch="normal" font-style="normal" font-variant="normal" font-weight="bold" text-anchor="start" writing-mode="lr-tb" style="text-align:start;line-height:125%;-inkscape-font-specification:Open Sans Bold">SDK</tspan></text></g><g id="g3010" transform="matrix(1.3053273,0,0,1.3053273,-203.94532,-297.87784)"><text id="text3002" x="159.602" y="393.261" fill="#000" fill-opacity="1" stroke="none" font-family="Sans" font-size="40" font-style="normal" font-weight="normal" letter-spacing="0" word-spacing="0" xml:space="preserve" style="line-height:125%"><tspan id="tspan3004" x="159.602" y="393.261" font-family="Open Sans" font-size="210" font-stretch="normal" font-style="normal" font-variant="normal" font-weight="bold" text-anchor="start" writing-mode="lr-tb" style="text-align:start;line-height:125%;-inkscape-font-specification:Open Sans Bold">git</tspan></text><text id="text3006" x="300.034" y="433.489" fill="#000" fill-opacity="1" stroke="none" font-family="Sans" font-size="40" font-style="normal" font-weight="normal" letter-spacing="0" word-spacing="0" xml:space="preserve" style="line-height:125%"><tspan font-style="normal" style="text-align:start;line-height:125%;-inkscape-font-specification:Open Sans Bold" id="tspan3008" x="300.034" y="433.489" font-family="Open Sans" font-size="48" font-stretch="normal" font-variant="normal" font-weight="bold" text-anchor="start" writing-mode="lr-tb">SDK</tspan></text></g><metadata id="metadata3107"/></svg>