<svg xmlns="http://www.w3.org/2000/svg" xmlns:svg="http://www.w3.org/2000/svg" id="svg3051" width="100%" height="100%" version="1.1" viewBox="0 0 113.925 113.923" xml:space="preserve"><metadata id="metadata3068"/><defs id="defs3053"><clipPath id="clipPath18"><path id="path3056" d="M 0,0 H 2183.73 V 912 H 0 V 0 z"/></clipPath></defs><g id="g3058" fill="#f34f29" fill-opacity="1" transform="matrix(1.25,0,0,-1.25,-6.1e-4,113.92294)"><g id="g3060" fill="#f34f29" fill-opacity="1" transform="scale(0.1,0.1)"><g id="g3062" fill="#f34f29" fill-opacity="1" clip-path="url(#clipPath18)"><path id="path3064" fill="#f34f29" fill-opacity="1" d="m 894.215,496.285 -397.938,397.91 c -22.898,22.918 -60.066,22.918 -82.996,0 L 330.652,811.559 435.469,706.738 c 24.367,8.227 52.297,2.711 71.711,-16.707 19.515,-19.539 24.992,-47.707 16.558,-72.156 l 101.024,-101.02 c 24.441,8.422 52.64,2.981 72.156,-16.57 27.285,-27.277 27.285,-71.476 0,-98.762 -27.285,-27.286 -71.488,-27.293 -98.789,0 -20.516,20.532 -25.59,50.676 -15.199,75.954 l -94.215,94.218 -0.008,-247.929 c 6.652,-3.293 12.93,-7.688 18.473,-13.207 27.277,-27.274 27.277,-71.465 0,-98.782 -27.285,-27.273 -71.504,-27.273 -98.762,0 -27.281,27.317 -27.281,71.508 0,98.782 6.742,6.73 14.543,11.824 22.867,15.238 v 250.23 c -8.324,3.403 -16.113,8.461 -22.867,15.239 -20.664,20.648 -25.641,50.976 -15.043,76.351 L 290.051,770.961 17.1992,498.125 c -22.9258,-22.937 -22.9258,-60.105 0,-83.027 L 415.133,17.1875 c 22.91,-22.918 60.066,-22.918 83.008,0 L 894.215,413.254 c 22.918,22.93 22.918,60.109 0,83.031"/></g></g></g></svg>